<?xml version="1.0" encoding="iso-8859-1"?>
<!-- Generator: Adobe Illustrator 19.0.0, SVG Export Plug-In . SVG Version: 6.00 Build 0)  -->
<svg xmlns="http://www.w3.org/2000/svg" xmlns:xlink="http://www.w3.org/1999/xlink" version="1.1" id="Layer_1" x="0px" y="0px" viewBox="0 0 511.975 511.975" style="enable-background:new 0 0 511.975 511.975;" xml:space="preserve" width="512px" height="512px">
<g>
	<g>
		<path d="M462.036,128.509l-51.392-17.131l57.152-95.253c2.389-3.968,1.941-9.045-1.131-12.523    c-3.072-3.477-8.064-4.544-12.288-2.731L113.044,150.205c-3.904,1.707-6.4,5.525-6.4,9.771v128c0,0.341,0.213,0.619,0.235,0.96    c0.107,1.109,0.363,2.155,0.811,3.179c0.213,0.469,0.363,0.917,0.64,1.365c0.683,1.131,1.6,2.091,2.709,2.923    c0.192,0.128,0.256,0.363,0.448,0.491c0.043,0.021,0.085,0.021,0.128,0.043c0.085,0.064,0.128,0.149,0.213,0.192l37.547,22.528    L49.044,363.56c-4.053,1.771-6.571,5.824-6.379,10.24c0.192,4.416,3.093,8.256,7.275,9.643l51.392,17.131L44.18,495.826    c-2.389,3.968-1.941,9.045,1.131,12.523c2.069,2.347,4.992,3.627,8,3.627c1.451,0,2.901-0.299,4.267-0.896L398.91,361.746    c3.883-1.707,6.4-5.525,6.4-9.771v-128c0-0.299-0.192-0.555-0.213-0.875c-0.107-1.173-0.384-2.24-0.832-3.328    c-0.192-0.448-0.341-0.875-0.619-1.301c-0.683-1.131-1.6-2.091-2.709-2.923c-0.192-0.128-0.256-0.363-0.448-0.491    c-0.043-0.021-0.085-0.021-0.128-0.043c-0.085-0.043-0.128-0.128-0.213-0.192l-37.568-22.549l100.352-43.904    c4.053-1.771,6.571-5.824,6.379-10.24C469.097,133.736,466.196,129.896,462.036,128.509z M383.977,345L79.657,478.162    l46.805-78.016c1.664-2.773,1.984-6.165,0.853-9.195c-1.131-3.051-3.563-5.397-6.635-6.421l-37.696-12.565l300.992-131.669V345z     M371.454,222.504l-198.101,86.677L140.5,289.469l198.101-86.677L371.454,222.504z M127.977,271.656V166.952L432.276,33.789    l-46.805,78.016c-1.664,2.773-1.984,6.165-0.853,9.195c1.131,3.051,3.563,5.397,6.635,6.421l37.696,12.565L127.977,271.656z" fill="#FFFFFF"/>
	</g>
</g>
<g>
</g>
<g>
</g>
<g>
</g>
<g>
</g>
<g>
</g>
<g>
</g>
<g>
</g>
<g>
</g>
<g>
</g>
<g>
</g>
<g>
</g>
<g>
</g>
<g>
</g>
<g>
</g>
<g>
</g>
</svg>
